<svg data-name="Mask Group 1" xmlns="http://www.w3.org/2000/svg" width="160" height="160"><path d="M12.117 75.831c-.13 1.3.13 3.909-.651 4.951-1.564 2.215-3.648 4.17-5.082 6.384-1.693 1.955-2.345 4.43-4.56 5.864-1.3.912 2.867.13 3.779-.392a13.873 13.873 0 004.951-4.56 5.9 5.9 0 001.042-2.866c.13-.391.13-.782.261-1.3 0-.13 0-.782.13-.651.391.26.13 3.517.13 4.169.261.651-.912 2.215-1.433 2.867-1.694 2.605-3.388 4.69-4.43 7.426a9.467 9.467 0 01-1.563 3A6.151 6.151 0 003 102.15c-.131.391.651-.13 1.042-.13a10.519 10.519 0 007.427-5.6 12.579 12.579 0 001.3-3.908v-1.173a5.581 5.581 0 01-.131-.912c.131.912 1.173 3.518.782 4.43a15.969 15.969 0 01-1.563 3.387 42.152 42.152 0 00-3.518 7.818 7.141 7.141 0 01-2.215 3.648c-.521.651 2.475-.521 3.257-.912 2.736-1.693 5.081-5.342 4.951-8.469 0-.391-.391-2.085-.13-2.476s.26.912.391 1.433a9.771 9.771 0 00.651 2.085c.521 1.564-1.042 3.909-1.694 5.343-1.433 3.647-1.824 7.556-4.039 10.814a14.431 14.431 0 003.127-1.3 11.147 11.147 0 004.43-8.339c0-.913-.651-2.085-.39-2.867 0-.39.13.521.26.912a7.989 7.989 0 00.651 1.564c.782 1.564.131 3-.26 4.821-.912 3.127-.912 7.556-2.085 10.684-.26.782-1.824 2.606-.651 2.085a10.734 10.734 0 005.342-12.379c-.912-2.736 1.824 2.346 1.694 3.779-.391 2.606-1.043 5.081-1.3 7.818 0 2.605.26 4.821-.782 7.166-.782 1.564.782 0 1.173-.391a10.368 10.368 0 003.778-7.426 9.2 9.2 0 00-.521-3.909c-.13-.652-1.042-2.215-.521-1.563A17.764 17.764 0 0125.8 121.3c.391.391 0 1.824 0 2.346-.13 3.648.261 7.556 0 11.074a8.427 8.427 0 01-.261 2.606c-.13.261-.651.912-.39.782 2.866-.261 4.3-6.123 4.429-8.208s-1.824-6.124-1.172-5.473c3.648 3.388 1.954 9.251 3.387 13.681a8.462 8.462 0 01.522 4.04c0 .52-.522 2.214-.131 1.693.261-.391.652-.651.912-1.043 2.737-3 2.737-8.469.912-11.856a2.82 2.82 0 00-.651-1.042 3.619 3.619 0 01-.651-.782 7.1 7.1 0 013.517 4.56c.652 2.606.912 5.342 1.564 7.687.521 1.694 1.3 3.127 1.433 4.821 0 .521-.391 2.345-.13 2.606.13.391.391-.651.651-.912a3.074 3.074 0 00.782-1.173 11.428 11.428 0 00.652-8.078 8.321 8.321 0 00-2.085-3.778c-.391-.391-1.433-1.173-.912-1.043 2.215.131 4.039 3.518 4.56 5.343.652 2.214 1.173 4.56 1.955 6.774.781 1.955 1.824 3.388 1.824 5.864 0 2.084 1.824-2.346 1.954-3.648a11.394 11.394 0 00-1.3-6.906c-.521-.912-3.518-3.518-2.215-2.867 2.085 1.043 3 1.564 3.909 3.519 1.563 3.648 3.778 7.165 5.212 10.813a6.568 6.568 0 01.651 1.7c0 .391 0 1.694.261 1.563 3.127-3 .26-10.033-1.564-12.247a7.966 7.966 0 00-2.215-1.955.127.127 0 01-.13-.13c1.954.912 3.518 1.3 4.69 3.257 1.824 3.127 3.388 5.994 5.473 8.99a9.447 9.447 0 011.563 3c.131.391 0 1.433.261 1.3.912-.912 1.042-3.648.912-4.951-.261-2.475-1.564-5.6-3.518-7.166a20.791 20.791 0 01-2.867-1.694c0-.13.391 0 .522.13a4.147 4.147 0 011.172.391c2.085.782 2.606.782 3.909 2.606a54.516 54.516 0 003.388 4.3c1.3 1.563 2.606 3.126 3.778 4.69.521.782 1.564 3 1.564 2.736a10.933 10.933 0 00-5.212-11.986h-.13a4.014 4.014 0 00-1.3-.652 3.215 3.215 0 00-.652-.26c.782.129 1.3.26 1.955.39 3.387.912 4.3 3.257 7.3 6.124 2.345 2.345 4.691 4.039 6.124 6.775a.688.688 0 00.26.391 9.024 9.024 0 00-.26-4.95 11.757 11.757 0 00-3.257-4.952 8.18 8.18 0 00-2.346-1.564c-.912-.39-3-1.042-1.954-.781 1.433.13 3.127-.131 4.3.651a17.435 17.435 0 013.257 3 20.1 20.1 0 001.694 1.564c1.694 1.433 3.648 2.344 5.212 3.908a.7.7 0 01.521.391c.651.912 1.693 2.345 1.693 1.824a8.461 8.461 0 00-.26-2.606 9.879 9.879 0 00-1.433-3.388 11.291 11.291 0 00-6.906-4.69c-.13-.13-.391-.13-.521-.26-.521 0-.391-.131 0-.131.912-.13 3.909.131 4.56.651.912.652 1.955 1.434 2.867 2.086a37.016 37.016 0 003.648 2.605 13.758 13.758 0 001.433.913 12.976 12.976 0 014.43 3.257c1.042 1.433.261-.782.261-1.564-.261-2.867-2.215-4.821-4.691-6.254a14.915 14.915 0 00-5.081-1.824c-.261 0-.261-.13-.521-.13h.521a10.51 10.51 0 015.081.651c2.736 1.042 4.951 2.867 8.209 4.039a11.987 11.987 0 013.648 1.825 6.287 6.287 0 001.563 1.3 4.59 4.59 0 00-.26-1.3c-1.694-5.213-6.124-7.558-11.727-7.558 1.694-.521 3.518-1.3 5.212-.651 3 1.3 5.863 3 9.121 3.779a10.294 10.294 0 013.778 1.433c.391.26 1.564 1.432 1.694 1.172a4.987 4.987 0 00-.391-1.3c-1.824-4.951-7.036-6.775-12.248-6.384 1.564-.651 3.388-1.694 5.082-1.173 3.127 1.042 5.993 2.345 9.381 2.866a11.571 11.571 0 013.778 1.043 17.28 17.28 0 001.825 1.042 2.311 2.311 0 00-.522-1.3c-2.345-4.822-7.557-6.124-12.768-5.213 1.172-.52 2.606-1.563 3.908-1.823 2.215-.392 5.473 1.172 7.818 1.563 2.606.521 5.342.131 7.557 1.042 1.694.782 1.694.521.521-.782a10.878 10.878 0 00-13.55-3.126c.912-.522 3-2.345 4.039-2.345 3.648 0 7.3 1.3 11.2.651 2.085-.26 6.384 1.433 5.081-.13-3.778-4.43-8.99-4.43-14.071-2.346 1.042-.781 2.084-1.433 3.127-2.345.521-.39.521-.912 1.173-.912 2.866-.391 6.123.13 8.99-.391 2.475-.391 4.951-1.042 7.426-.391 1.173.391.522 0 0-.651-3.908-4.43-10.814-3-14.983 0 .912-.912 1.824-1.564 2.606-2.476.26-.391.912-1.3.912-.782 0-.782 1.433-.651 2.084-.782 1.434-.129 2.736-.26 4.3-.39 3-.391 5.6-1.694 8.6-1.694.652-.13 2.346.13 2.346 0-.522-1.563-4.3-2.606-5.733-2.866-4.3-.391-6.776 1.3-9.642 3.517.912-1.172 1.824-3 2.866-3.778 1.564-1.042 4.43-1.173 6.255-1.694 2.866-.651 5.472-2.215 8.469-2.736a3.635 3.635 0 011.3-.13c.26 0 1.042.26.912 0-.652-1.433-4.561-2.215-6.124-2.085-4.56.13-6.906 2.215-9.772 5.342a43.25 43.25 0 013-4.821c1.824-1.693 5.733-1.955 8.078-2.866 2.866-1.3 4.821-3.258 8.339-3.258-5.473-3.257-11.336-.912-14.984 3.909.651-1.3 1.172-3.257 2.084-4.3 1.564-1.955 5.473-2.476 7.688-3.779 2.736-1.564 4.43-3.388 7.817-3.778a10.957 10.957 0 00-14.462 4.95 22.911 22.911 0 011.563-4.169c.912-1.3 3.388-2.345 4.691-3.127 3.388-1.954 5.993-5.472 10.032-6.384-6.254-2.084-11.726 1.564-13.941 7.036.391-1.433.521-3.388 1.3-4.822 1.173-2.083 4.691-3.387 6.515-5.211 2.345-2.215 3.908-4.3 6.775-5.342-4.691-1.3-8.99 1.043-11.6 4.821a22.407 22.407 0 00-1.3 3.127c.13-1.433.391-3 .651-4.43.261-1.824 4.3-4.3 5.473-5.6 2.345-2.606 3.648-5.211 6.775-6.9-6.645-.652-11.205 3.909-12.117 10.033.13-1.564.26-3 .26-4.692 0-2.084 3.518-4.559 4.821-6.253 1.955-2.736 3-5.472 5.994-7.427a10.847 10.847 0 00-10.424 7.3c-.391 1.042-.26 2.345-.651 3.387 0-1.433-.652-4.039.13-5.211 1.173-2.085 2.606-3.909 3.778-5.864 1.694-2.866 2.346-5.863 5.082-8.208-6.384.781-9.642 5.863-9.642 12.378-.13-1.564-1.042-4.17-.521-5.6.782-2.084 2.085-4.039 3.127-6.254 1.564-3 1.694-6.123 4.43-8.469a10.94 10.94 0 00-8.73 9.251 28.412 28.412 0 00.131 3.388c-.391-1.3-.782-2.737-1.173-4.04-.13-2.345 1.694-5.212 2.476-7.426 1.172-3.258 1.172-6.385 3.257-9.251-5.733 2.215-8.469 8.078-6.645 14.2-.651-1.825-2.215-3.909-1.694-5.864 1.043-4.43 1.564-11.465 3.909-15.5a10.86 10.86 0 00-5.733 13.421c.652 1.954-.521-.782-.912-1.434-1.042-1.954-.912-3.257-.521-5.472.782-4.169.26-9.641 1.954-13.29-5.081 3.258-6.124 8.73-4.169 14.333-.782-1.043-1.564-2.215-2.345-3.258h.13c-.652-.391-.261-3.257-.261-4.169.261-4.43-1.042-9.381.391-13.29-4.69 3.909-5.472 10.033-2.084 15.244-.913-1.042-2.476-2.215-3.128-3.517-1.042-2.085-.39-6-.651-8.47-.391-3-1.433-5.472-.782-8.729-4.169 3.778-4.56 11.2-.391 15.244a16.339 16.339 0 01-3.518-3.127c-1.3-1.955-.912-5.863-1.563-8.208-.782-3-1.955-5.212-1.564-8.6-3.648 4.3-3.648 11.206.913 15.114-.782-.652-3.388-1.954-3.649-2.736-.912-2.215-1.3-4.821-2.215-7.166-1.3-3-3-5.472-3-9.251-3.779 5.081-1.564 11.6 3.127 15.245-1.173-.783-3.909-1.694-4.561-3-1.042-2.084-1.694-4.429-2.736-6.514-1.433-3.127-3.257-5.212-3.778-8.86a11.1 11.1 0 004.169 14.593c-1.3-.521-2.606-1.173-3.909-1.694-1.172 0-3.257-5.993-3.778-6.645-1.694-3-4.039-4.821-4.691-8.339-2.475 5.473.652 10.814 5.212 13.811-1.694-.651-3.518-.781-4.691-2.215-1.563-2.084-2.736-4.43-4.56-6.384a1.954 1.954 0 00-.521-.521c-1.824-2.085-3.388-3.388-4.169-5.994a5.223 5.223 0 00-.391 1.955 6.279 6.279 0 000 2.215 11.508 11.508 0 005.081 7.687c.782.391 1.564.912 2.476 1.3a8.4 8.4 0 00-2.476-.521 10.247 10.247 0 00-1.824-.261c-.782 0-2.606-2.736-3.257-3.648a.688.688 0 01-.261-.391c-2.215-2.736-5.6-4.56-7.166-7.687a9.354 9.354 0 01-.651-1.173A10.12 10.12 0 0080 6.015a12.806 12.806 0 007.166 6.384c-3.778 0-5.212-1.173-7.166-3.127-.651-.652-1.433-1.433-2.215-2.345C75.179 4.712 72.313 3.8 70.619.673c0 6.254 3.518 9.9 9.381 11.336a16.782 16.782 0 00-2.476.129h-1.563c-1.043-.129-2.345-1.563-3-2.084-2.085-1.434-4.3-2.736-6.384-4.17a17.481 17.481 0 01-4.43-3.778 11.643 11.643 0 004.43 8.078 13.793 13.793 0 005.993 2.346 21.652 21.652 0 01-3.909.521 6.85 6.85 0 01-2.084-.782c-1.824-.912-3.779-2.606-5.342-3.388-2.736-1.433-5.212-1.954-7.557-4.3.651 5.994 5.863 8.86 11.856 8.991-1.433.391-2.736.781-4.039 1.042-1.563.391-5.472-2.476-6.905-3.127-3.127-1.433-6.124-1.433-8.86-3.909 1.433 4.039 3.909 6.775 8.339 7.948 1.172.391 2.345-.13 3.648.13 1.433 0-1.173.521-1.694.782-1.954.651-2.606.26-4.56-.391-4.039-1.172-9.9-1.694-13.551-4.038 1.824 3.647 4.561 6.253 9.121 6.774 1.433.131 2.606-.521 4.039-.521 1.563 0-1.3.782-1.824 1.042-1.694.913-2.476.652-4.43.261-4.039-.782-10.163-.782-13.811-2.736a9.892 9.892 0 007.3 5.473 9.63 9.63 0 005.082-.131 3.111 3.111 0 011.172-.391c.131 0 .652-.391.521-.13-.13.521-.781.521-1.3.782-3.257 1.954-5.6 1.042-9.772.782-3.517-.261-6.514.521-9.511-.912a10.391 10.391 0 007.948 4.821c2.215.26 7.3-1.955 5.6-.652-.913.652-1.825 1.824-3 1.954-2.215.261-4.691 0-7.036.261-3.518.26-6.384 1.173-9.642.26a11.143 11.143 0 0014.2 2.085 4.182 4.182 0 01.782-.652c.521-.13-.391.522-.521.522l-1.955 1.954c-1.172 1.3-4.039 1.173-5.732 1.3-4.17.521-7.818 2.476-11.857 1.564 3.127 3.257 8.99 4.3 12.9 1.693.912-.651 2.475-1.954 1.694-1.173-.391.392-2.346 3.388-2.346 2.867 0 .391-3 .781-3.517.913-4.3.911-8.339 3.387-13.03 3a10.322 10.322 0 008.99 2.085 8.871 8.871 0 004.3-2.085c.261-.26.912-.782 1.173-1.042-1.564 1.694-1.433 3-3.648 3.908-2.476 1.043-5.343 1.564-7.688 3-2.215 1.173-4.039 2.345-6.775 2.345a11.06 11.06 0 0011.336-.13c1.042-.651 1.693-1.824 2.736-2.606 1.172-.912-.391 1.173-.652 1.825-.782 1.563-1.694 1.954-3.387 2.865-3.909 1.825-8.079 5.343-12.639 6a10.661 10.661 0 0011.075-1.173c1.173-.782 1.564-1.955 2.606-2.867.912-.782-.391 1.3-.521 1.955-.652 1.824-1.564 2.214-3.127 3.257C9.117 62.571 5.078 66.74.779 68.043c4.3.912 7.817.391 11.075-2.606a26.2 26.2 0 002.215-3.517c1.042-1.173-.131 1.433-.261 2.084-.521 1.954-1.173 2.475-2.736 3.518-3.388 2.736-7.036 7.165-11.075 8.73a10.558 10.558 0 0010.684-3.519c.912-1.041 1.173-2.344 1.824-3.387.912-1.3 0 1.3 0 1.954a6.407 6.407 0 01-2.345 3.909C6.902 78.467 4.036 83.027.127 85.242a11.139 11.139 0 0011.075-6.254 7.441 7.441 0 00.521-1.824c.134-.551.394-1.985.394-1.333zM12.638 77v-1.043c.131-1.563.131-.782.391-.13 1.173 4.821 5.082 8.078 10.293 7.427-3.257-1.564-4.951-4.821-7.817-7.166a12.822 12.822 0 01-2.736-2.606c-.391-.913.391-2.736.651-3.779a3.617 3.617 0 01.13-1.173c.261-1.954.261-.781.261.131.782 5.081 4.169 8.469 9.511 8.469-3.387-1.824-5.993-6.515-8.469-9.642-1.3-1.564.391-8.99.522-5.342.39 4.17 3.387 8.469 7.817 8.73.652 0-1.563-2.476-2.345-4.039-1.564-3.258-5.6-6.124-4.3-9.772.521-1.564 1.433-4.56 1.3-2.867-.261 4.43 1.173 8.73 5.212 10.293.651.261 2.736 1.173 1.694.131-1.824-1.824-2.215-4.17-3.127-6.385-1.043-2.085-3.518-4.56-2.737-6.645a18.288 18.288 0 011.955-3.909c.391-.912-.261 2.476-.13 3.649a9.181 9.181 0 004.169 6.775c.391.26 3 1.564 2.215.651-1.694-1.824-1.954-4.039-2.606-6.384-.651-1.694-1.563-3.258-2.215-5.081a2.961 2.961 0 01-.521-1.173c.13-1.042 1.3-2.215 1.824-3a2.715 2.715 0 01.521-.781c1.433-2.345.261.52.13 1.824a9.073 9.073 0 00.652 4.169 7.731 7.731 0 003 4.039c.651.391 2.475 1.694 1.693.521-1.693-2.345-1.563-6.124-2.605-8.99-.131-.652-1.434-3-1.173-3.908a14.311 14.311 0 013.778-4.691c.261-.261-.26.391-.26.782a7.74 7.74 0 00-.782 1.433 10.3 10.3 0 001.433 8.338c.652.782 3.258 2.737 2.867 2.085a4.564 4.564 0 01-.782-1.824c-.651-2.867-.521-6.123-1.042-8.73-.391-1.563-1.043-2.606.13-3.779 1.042-1.172 4.691-4.95 2.736-1.823a7.982 7.982 0 00-.782 6.254 8.6 8.6 0 001.564 3.518c.391.391 2.085 1.954 2.085 1.563a79.067 79.067 0 01-.522-8.078c-.26-1.563-1.172-5.211 0-6.254a30.409 30.409 0 014.04-3.127c.26-.131-.261.391-.522.651a3 3 0 01-.651.913 6.865 6.865 0 00-1.042 3.257 8.52 8.52 0 002.736 8.078c.521.391-.131-1.563-.131-2.736.131-1.434.522-2.476.652-3.909.13-2.084-.261-4.56.13-6.645.13-1.172 1.955-1.824 2.606-2.215a7.745 7.745 0 012.606-1.564c.391-.26-.391.522-.782.913a8.62 8.62 0 00-1.954 2.866 10.166 10.166 0 00.13 7.818c.13.26 1.694 2.736 1.564 1.563-.652-3.778 1.172-7.556 1.693-11.336.131-.52.131-2.084.522-2.475a25.673 25.673 0 013.257-1.564c3.257-1.563-1.433 2.085-2.085 5.473a9.935 9.935 0 00.391 4.43c.13.39 1.3 2.345 1.433 2.085.261-1.043 0-2.215.261-3.258 1.042-3 1.954-6.124 3-9.381.521-2.084 3.908-1.564 5.6-2.736-3.257 2.606-5.733 6.124-4.3 10.684 0 .39.912 2.736.912 1.694 0-3.258 2.345-5.472 3.257-8.339.651-1.824.782-4.169 2.606-4.951a35.653 35.653 0 014.43-1.3c.26 0 .391.13 0 .521a7.486 7.486 0 00-.912.521 9.653 9.653 0 00-4.17 5.212 6.934 6.934 0 00-.391 4.3c.131.521.522 2.345.782 1.954a10.328 10.328 0 00.391-1.954c.782-1.824 2.476-3.388 3.257-5.081a15.359 15.359 0 001.043-2.086c.912-2.084 1.694-3.387 4.56-3.778 1.042-.13 2.215-1.042 3-.391.26.261-.261.261-.652.261a9.661 9.661 0 00-1.563.912 7.85 7.85 0 00-3.258 3.257 9.082 9.082 0 00-1.3 4.952c0 .651.39 2.475.651 2.214.651-.781.651-2.084 1.3-3 2.085-2.605 3.909-5.211 5.733-7.817.782-1.172 3-1.172 4.951-1.043.651 0 1.3.131 1.694.131a14.637 14.637 0 00-1.694.651c-3 1.173-5.342 3-6.254 6.515-.13.521-.652 3.518 0 3.909.391.261.26-.782.391-1.042a11.62 11.62 0 011.954-2.476c1.433-1.433 2.606-2.736 3.909-4.17.651-.781 1.433-1.824 2.215-2.6 1.042-1.042 3.257-.782 5.212-.391.391 0 1.042.13 1.3.13-.391.13-.912.261-1.3.391a10.359 10.359 0 00-5.733 3.518A8.636 8.636 0 0080 21.238v1.694c0 .39.13.521.391 0 .912-2.085 3-3 4.56-4.3.782-.651 1.564-1.693 2.476-2.606 1.172-1.3 2.606-2.606 4.039-2.345.391 0 .651.13 1.042.13a37.322 37.322 0 013.648.912 16.4 16.4 0 00-3.648.522 8.339 8.339 0 00-4.039 2.475 9.838 9.838 0 00-1.042 1.434 6.211 6.211 0 00-1.043 2.344c-.26.652-.651 2.867.131 1.695a6.493 6.493 0 01.912-1.043c1.3-1.3 3.257-1.954 4.821-3.257a.259.259 0 00.26-.131c1.694-1.433 3.909-4.039 5.863-3.517 1.564.39 3 1.042 4.56 1.563a9.237 9.237 0 00-9.381 4.43 7.382 7.382 0 00-1.042 2.084c-.26.652-.521 1.434-.26 1.564.13.13.13.13.26-.13a2.85 2.85 0 00.391-.651c.391-.391.782-.652 1.173-1.043 1.563-.912 3.257-1.564 4.821-2.475 1.563-.782 4.169-3.388 5.732-3.258 1.824.261 3.649 1.564 5.212 2.346-3.909-.782-7.817.13-10.163 3.127-.391.52-2.085 3-1.563 3.648.13.26.391-.391.651-.652a4.69 4.69 0 011.3-.912c1.433-.781 3.388-1.172 4.951-1.824 1.694-.781 4.3-2.866 6.124-2.736 1.694.261 3.648 1.955 4.951 2.736-3.778-.781-7.557-.651-10.293 2.345-.391.391-2.215 2.867-1.954 3.388.13.261.521-.391.781-.521.391-.261.912-.652 1.3-.912 1.694-.652 3.648-.652 5.212-1.3 1.954-.522 4.3-1.954 6.124-2.085 1.3-.13 3.909 2.736 4.951 3.518-4.56-1.564-10.163-1.564-12.639 3.258-.26.39 3.518-.522 5.864-.783 3.648-.391 6.645-2.605 9.511-.129a24.744 24.744 0 002.736 2.475c-3.387-1.694-7.3-2.346-10.684-.131-.782.522-3.257 3.128-2.084 2.606 1.954-1.042 4.039-.521 6.254-.651 3.257-.261 6.514-1.824 8.729.651.782.913 1.694 1.955 2.476 2.867-3.127-1.824-6.776-3-10.424-1.173-.781.522-3.518 2.867-2.215 2.476 2.346-.782 4.691 0 7.167 0 5.732.13 6.905-.391 9.9 4.821-2.867-2.215-6.515-4.3-10.424-2.606-.521.13-3.257 1.564-3.257 2.215 0 .261.651-.261.912-.261a6.288 6.288 0 011.563 0 24.248 24.248 0 015.343 1.043c1.954.26 5.6-.261 6.775 1.3a21.972 21.972 0 012.606 4.43c-2.606-2.605-5.864-4.69-10.033-3.518-.651.261-3.257 1.173-3.387 1.955-.131.261.521-.13.912-.13a3.2 3.2 0 011.563.13 34.514 34.514 0 015.212 1.563c1.694.392 5.472.392 6.514 1.824a18.761 18.761 0 011.955 4.691c-2.606-2.606-4.951-4.951-9.251-4.169-.651 0-3.518.651-3.648 1.433 0 .26.651 0 .912 0 .521 0 1.042.13 1.563.13 1.824.521 3.258 1.694 4.951 2.215 1.694.652 5.212.782 6.124 2.345.912 1.434 1.173 3.519 1.564 5.212-2.867-4.56-7.166-6.9-12.639-4.56 3 .26 4.691 1.954 7.166 3.258 1.564.911 5.082 1.563 5.994 3 .782 1.3.651 3.779.912 5.342-2.085-4.821-6.775-7.427-12.117-5.6 2.866.522 4.43 2.346 6.775 3.909 1.433.912 4.821 1.955 5.6 3.388s.26 4.3.391 5.863c-1.825-5.081-5.473-8.469-11.466-7.3 2.736.912 4.039 2.866 6.384 4.56 1.433 1.3 4.3 2.476 5.212 4.169.651 1.043-.261 4.3-.261 5.6-1.3-5.343-4.69-8.469-10.684-8.078 2.606 1.172 3.779 3.127 5.863 5.212 1.434 1.563 3.518 2.736 4.691 4.429a1.6 1.6 0 01-.261 1.3c-.13 1.564-.391 3-.651 4.56-.521-5.472-3.779-9.511-9.512-9.511 3 1.825 4.3 5.342 6.906 8.078 1.3 1.3 2.345 2.085 2.085 3.909-.131 1.434-.782 3-1.043 4.561-.651-5.733-2.866-9.512-8.86-10.293 3.388 2.606 5.212 7.035 7.557 10.422 1.3 2.086-.39 4.691-1.3 6.907.391-5.734-1.693-10.294-7.426-11.466 3.127 2.736 4.43 7.687 6.254 11.205 1.172 2.214-.782 4.56-1.955 6.515.782-5.6-.912-10.033-6.254-11.858 2.476 3.258 3.518 8.079 4.951 11.858.782 2.214-1.3 4.3-2.736 6.123 1.434-5.473.522-9.9-4.69-12.638 1.563 2.345 1.433 4.951 2.085 7.687.39 1.825 2.214 4.951 1.3 6.645a14.739 14.739 0 01-3.127 3.909c1.825-5.212 1.434-9.642-3.517-12.639 1.824 3.127 1.824 8.73 2.345 12.508.26 2.345-2.215 3.779-3.779 5.212 1.955-4.821 2.346-9.381-2.345-12.9 1.173 3.388.651 8.47 1.042 12.248.131 2.867-2.605 3.909-4.56 5.472 3-4.3 3.648-9.511-.521-13.42.651 2.736-.13 5.081-.521 7.817-.131 1.825.521 4.952-.261 6.515-.782 1.3-3.518 2.215-4.821 3 3.388-4.17 4.43-8.86.912-13.29.391 3-.651 5.082-1.3 7.687-.39 2.085-.26 4.3-.912 6.384-.13.392-.651.261-1.042.521-1.433.652-2.866 1.3-4.169 1.955 3.778-3.778 5.472-8.339 2.084-13.159.391 4.3-2.084 8.6-3.127 12.508-.651 2.606-3.908 2.214-6.124 3.387 4.561-3.127 6.776-7.687 4.04-13.029 0 3.127-1.955 5.082-3 7.688-.521 1.432-1.043 2.865-1.694 4.3-.912 2.215-3.909 2.345-6.124 2.736 4.43-2.867 7.036-6.775 5.082-12.378-.652 3.779-3.779 7.557-5.6 10.814-.13.261-.13.391-.26.652-.913 1.564-2.867 1.694-4.821 1.824-.652 0-1.173.131-1.564.131a17.355 17.355 0 011.564-.783 9.33 9.33 0 004.56-11.074c-.912 2.736-2.867 4.951-4.56 7.3a8.413 8.413 0 00-1.3 1.694c-.652 1.3-1.173 2.606-2.606 2.867a32.019 32.019 0 01-3.518.26 6.365 6.365 0 01-1.564-.13A7.909 7.909 0 0080 146.71c4.169-1.694 6.775-4.951 6.124-10.293-1.3 2.606-3 3.779-5.082 5.993-.391.391-.651.912-1.042 1.3-1.954 2.345-2.476 3.778-6.906 3.387-.651 0-1.172-.26-1.824-.26 5.212-.913 8.73-4.561 8.469-10.163-1.042 2.345-3 3.257-4.951 4.951-1.694 1.693-3.909 5.212-6.384 4.82-.652-.129-1.3-.26-1.824-.39a15.276 15.276 0 01-2.606-.652 17.891 17.891 0 002.606-.391c4.039-1.042 6.9-3.648 7.3-8.6-1.694 2.345-4.039 3.258-6.254 4.691a7.4 7.4 0 01-1.042.911c-1.433 1.3-3.127 3.128-4.43 3a15.887 15.887 0 01-4.951-1.694c4.3 0 7.687-1.563 9.381-4.82a10.707 10.707 0 00.912-3.257c-.261.39-.652.651-.912 1.042-2.476 2.084-5.342 2.867-7.948 4.821-.912.651-2.345 1.693-3.388 1.563a11.046 11.046 0 01-3.648-1.563 1.378 1.378 0 01-.651-.261c-1.173-.521-.522-.261.13-.261 5.212.652 9.511-2.084 10.814-6.9-2.606 2.606-6.514 3-9.642 4.56-.912.521-2.475 1.563-3.517 1.563a11.349 11.349 0 01-3.127-1.954 5.415 5.415 0 01-.782-.26c-1.043-.651-.782-.651-.261-.391 5.082 1.172 9.772-1.173 11.466-5.733-3 2.085-6.906 2.215-10.033 3.518-.912.391-2.345 1.3-3.387 1.172-.912-.13-2.215-1.563-3.127-2.214-.261-.261-.521-.391-.782-.652-1.564-1.173-.651-.651.13-.26a9.291 9.291 0 0011.987-4.561c-2.475 1.694-5.211 1.3-8.078 1.955a46.35 46.35 0 00-4.56 1.172c-1.955.392-7.3-4.691-4.43-3.127 4.43 2.346 9.12.261 11.857-3.387-3.258 1.432-8.6 1.172-12.248 1.563-1.433.26-1.564.26-2.606-.652a31.092 31.092 0 01-2.866-3c-.261-.39-.391-.651 0-.39 4.69 2.736 9.381 2.605 13.029-1.695-3.648 1.173-8.339.391-12.378.391-2.475.13-4.169-2.476-5.081-4.56-.261-.521.13.13.391.13 4.169 3.388 8.99 3.779 13.029.131-3.648.521-6.775-.782-10.554-1.173-1.433 0-3.127 0-4.039-.912-.13-.261-3.909-5.863-1.824-3.909 3.648 3.518 8.6 4.039 12.638 1.042-3.648.521-6.905-1.563-10.423-2.214-1.3-.131-3-.262-3.648-1.3-.391-.39-2.867-5.862-1.694-4.169a9.561 9.561 0 0012.638 2.346c-3.908 0-6.645-2.346-10.162-3.258-1.173-.26-3-.521-3.518-1.433-.522-.652-2.867-7.166-1.043-4.56 2.736 4.169 7.3 6.123 12.118 3.908-3.779-.651-6.385-3-9.642-4.429-1.042-.391-3-1.043-3.518-1.955-.521-1.042-.521-2.736-.782-3.779v-.911c-.26-1.3 0-.521.13 0 2.346 4.69 6.776 6.514 11.857 5.081-3.518-.912-6.124-3.779-9.251-5.342-.912-.391-2.736-1.173-3.127-2.085-.521-1.042-.26-2.736-.391-3.909v-.912c-.13-1.563.131-.651.391.131 1.824 4.56 5.6 7.3 11.075 6.124-3.518-1.173-5.733-4.17-8.6-6.255a10.855 10.855 0 01-3-2.475c-.521-.915 0-2.609.13-3.655z" fill="#131212" fill-rule="evenodd"/></svg>